<svg width="1446" height="868" viewBox="0 0 1446 868" fill="none" xmlns="http://www.w3.org/2000/svg">
<rect width="1446" height="868" fill="#F1F1F1"/>
<path d="M330.617 405V319.688H360.5C370.852 319.688 378.703 321.68 384.055 325.664C389.406 329.609 392.082 335.41 392.082 343.066C392.082 347.246 391.008 350.938 388.859 354.141C386.711 357.305 383.723 359.629 379.895 361.113C384.27 362.207 387.707 364.414 390.207 367.734C392.746 371.055 394.016 375.117 394.016 379.922C394.016 388.125 391.398 394.336 386.164 398.555C380.93 402.773 373.469 404.922 363.781 405H330.617ZM348.195 367.852V390.879H363.254C367.395 390.879 370.617 389.902 372.922 387.949C375.266 385.957 376.438 383.223 376.438 379.746C376.438 371.934 372.395 367.969 364.309 367.852H348.195ZM348.195 355.43H361.203C370.07 355.273 374.504 351.738 374.504 344.824C374.504 340.957 373.371 338.184 371.105 336.504C368.879 334.785 365.344 333.926 360.5 333.926H348.195V355.43ZM424.016 405H407.023V341.602H424.016V405ZM406.027 325.195C406.027 322.656 406.867 320.566 408.547 318.926C410.266 317.285 412.59 316.465 415.52 316.465C418.41 316.465 420.715 317.285 422.434 318.926C424.152 320.566 425.012 322.656 425.012 325.195C425.012 327.773 424.133 329.883 422.375 331.523C420.656 333.164 418.371 333.984 415.52 333.984C412.668 333.984 410.363 333.164 408.605 331.523C406.887 329.883 406.027 327.773 406.027 325.195ZM467.199 406.172C457.902 406.172 450.324 403.32 444.465 397.617C438.645 391.914 435.734 384.316 435.734 374.824V373.184C435.734 366.816 436.965 361.133 439.426 356.133C441.887 351.094 445.363 347.227 449.855 344.531C454.387 341.797 459.543 340.43 465.324 340.43C473.996 340.43 480.812 343.164 485.773 348.633C490.773 354.102 493.273 361.855 493.273 371.895V378.809H452.902C453.449 382.949 455.09 386.27 457.824 388.77C460.598 391.27 464.094 392.52 468.312 392.52C474.836 392.52 479.934 390.156 483.605 385.43L491.926 394.746C489.387 398.34 485.949 401.152 481.613 403.184C477.277 405.176 472.473 406.172 467.199 406.172ZM465.266 354.141C461.906 354.141 459.172 355.273 457.062 357.539C454.992 359.805 453.664 363.047 453.078 367.266H476.633V365.918C476.555 362.168 475.539 359.277 473.586 357.246C471.633 355.176 468.859 354.141 465.266 354.141ZM518.527 341.602L519.055 348.926C523.586 343.262 529.66 340.43 537.277 340.43C543.996 340.43 548.996 342.402 552.277 346.348C555.559 350.293 557.238 356.191 557.316 364.043V405H540.383V364.453C540.383 360.859 539.602 358.262 538.039 356.66C536.477 355.02 533.879 354.199 530.246 354.199C525.48 354.199 521.906 356.23 519.523 360.293V405H502.59V341.602H518.527ZM593.938 384.316L605.715 341.602H623.41L602.023 405H585.852L564.465 341.602H582.16L593.938 384.316ZM659.27 406.172C649.973 406.172 642.395 403.32 636.535 397.617C630.715 391.914 627.805 384.316 627.805 374.824V373.184C627.805 366.816 629.035 361.133 631.496 356.133C633.957 351.094 637.434 347.227 641.926 344.531C646.457 341.797 651.613 340.43 657.395 340.43C666.066 340.43 672.883 343.164 677.844 348.633C682.844 354.102 685.344 361.855 685.344 371.895V378.809H644.973C645.52 382.949 647.16 386.27 649.895 388.77C652.668 391.27 656.164 392.52 660.383 392.52C666.906 392.52 672.004 390.156 675.676 385.43L683.996 394.746C681.457 398.34 678.02 401.152 673.684 403.184C669.348 405.176 664.543 406.172 659.27 406.172ZM657.336 354.141C653.977 354.141 651.242 355.273 649.133 357.539C647.062 359.805 645.734 363.047 645.148 367.266H668.703V365.918C668.625 362.168 667.609 359.277 665.656 357.246C663.703 355.176 660.93 354.141 657.336 354.141ZM710.598 341.602L711.125 348.926C715.656 343.262 721.73 340.43 729.348 340.43C736.066 340.43 741.066 342.402 744.348 346.348C747.629 350.293 749.309 356.191 749.387 364.043V405H732.453V364.453C732.453 360.859 731.672 358.262 730.109 356.66C728.547 355.02 725.949 354.199 722.316 354.199C717.551 354.199 713.977 356.23 711.594 360.293V405H694.66V341.602H710.598ZM780.148 405H763.156V341.602H780.148V405ZM762.16 325.195C762.16 322.656 763 320.566 764.68 318.926C766.398 317.285 768.723 316.465 771.652 316.465C774.543 316.465 776.848 317.285 778.566 318.926C780.285 320.566 781.145 322.656 781.145 325.195C781.145 327.773 780.266 329.883 778.508 331.523C776.789 333.164 774.504 333.984 771.652 333.984C768.801 333.984 766.496 333.164 764.738 331.523C763.02 329.883 762.16 327.773 762.16 325.195ZM791.516 372.832C791.516 362.949 793.723 355.078 798.137 349.219C802.59 343.359 808.664 340.43 816.359 340.43C822.531 340.43 827.629 342.734 831.652 347.344V315H848.645V405H833.352L832.531 398.262C828.312 403.535 822.883 406.172 816.242 406.172C808.781 406.172 802.785 403.242 798.254 397.383C793.762 391.484 791.516 383.301 791.516 372.832ZM808.449 374.062C808.449 380 809.484 384.551 811.555 387.715C813.625 390.879 816.633 392.461 820.578 392.461C825.812 392.461 829.504 390.254 831.652 385.84V360.82C829.543 356.406 825.891 354.199 820.695 354.199C812.531 354.199 808.449 360.82 808.449 374.062ZM859.133 372.715C859.133 366.426 860.344 360.82 862.766 355.898C865.188 350.977 868.664 347.168 873.195 344.473C877.766 341.777 883.059 340.43 889.074 340.43C897.629 340.43 904.602 343.047 909.992 348.281C915.422 353.516 918.449 360.625 919.074 369.609L919.191 373.945C919.191 383.672 916.477 391.484 911.047 397.383C905.617 403.242 898.332 406.172 889.191 406.172C880.051 406.172 872.746 403.242 867.277 397.383C861.848 391.523 859.133 383.555 859.133 373.477V372.715ZM876.066 373.945C876.066 379.961 877.199 384.57 879.465 387.773C881.73 390.938 884.973 392.52 889.191 392.52C893.293 392.52 896.496 390.957 898.801 387.832C901.105 384.668 902.258 379.629 902.258 372.715C902.258 366.816 901.105 362.246 898.801 359.004C896.496 355.762 893.254 354.141 889.074 354.141C884.934 354.141 881.73 355.762 879.465 359.004C877.199 362.207 876.066 367.188 876.066 373.945ZM963.957 387.48C963.957 385.41 962.922 383.789 960.852 382.617C958.82 381.406 955.539 380.332 951.008 379.395C935.93 376.23 928.391 369.824 928.391 360.176C928.391 354.551 930.715 349.863 935.363 346.113C940.051 342.324 946.164 340.43 953.703 340.43C961.75 340.43 968.176 342.324 972.98 346.113C977.824 349.902 980.246 354.824 980.246 360.879H963.312C963.312 358.457 962.531 356.465 960.969 354.902C959.406 353.301 956.965 352.5 953.645 352.5C950.793 352.5 948.586 353.145 947.023 354.434C945.461 355.723 944.68 357.363 944.68 359.355C944.68 361.23 945.559 362.754 947.316 363.926C949.113 365.059 952.121 366.055 956.34 366.914C960.559 367.734 964.113 368.672 967.004 369.727C975.949 373.008 980.422 378.691 980.422 386.777C980.422 392.559 977.941 397.246 972.98 400.84C968.02 404.395 961.613 406.172 953.762 406.172C948.449 406.172 943.723 405.234 939.582 403.359C935.48 401.445 932.258 398.848 929.914 395.566C927.57 392.246 926.398 388.672 926.398 384.844H942.453C942.609 387.852 943.723 390.156 945.793 391.758C947.863 393.359 950.637 394.16 954.113 394.16C957.355 394.16 959.797 393.555 961.438 392.344C963.117 391.094 963.957 389.473 963.957 387.48ZM1058 405C1057.22 403.477 1056.65 401.582 1056.3 399.316C1052.2 403.887 1046.87 406.172 1040.3 406.172C1034.09 406.172 1028.94 404.375 1024.84 400.781C1020.77 397.188 1018.74 392.656 1018.74 387.188C1018.74 380.469 1021.22 375.312 1026.18 371.719C1031.18 368.125 1038.39 366.309 1047.8 366.27H1055.6V362.637C1055.6 359.707 1054.84 357.363 1053.31 355.605C1051.83 353.848 1049.46 352.969 1046.22 352.969C1043.37 352.969 1041.12 353.652 1039.48 355.02C1037.88 356.387 1037.08 358.262 1037.08 360.645H1020.15C1020.15 356.973 1021.28 353.574 1023.55 350.449C1025.81 347.324 1029.02 344.883 1033.16 343.125C1037.3 341.328 1041.95 340.43 1047.1 340.43C1054.91 340.43 1061.11 342.402 1065.68 346.348C1070.29 350.254 1072.59 355.762 1072.59 362.871V390.352C1072.63 396.367 1073.47 400.918 1075.11 404.004V405H1058ZM1044 393.223C1046.5 393.223 1048.8 392.676 1050.91 391.582C1053.02 390.449 1054.58 388.945 1055.6 387.07V376.172H1049.27C1040.79 376.172 1036.28 379.102 1035.73 384.961L1035.68 385.957C1035.68 388.066 1036.42 389.805 1037.9 391.172C1039.39 392.539 1041.42 393.223 1044 393.223ZM1103.47 405H1086.48V315H1103.47V405ZM363.84 528.48C363.84 526.41 362.805 524.789 360.734 523.617C358.703 522.406 355.422 521.332 350.891 520.395C335.812 517.23 328.273 510.824 328.273 501.176C328.273 495.551 330.598 490.863 335.246 487.113C339.934 483.324 346.047 481.43 353.586 481.43C361.633 481.43 368.059 483.324 372.863 487.113C377.707 490.902 380.129 495.824 380.129 501.879H363.195C363.195 499.457 362.414 497.465 360.852 495.902C359.289 494.301 356.848 493.5 353.527 493.5C350.676 493.5 348.469 494.145 346.906 495.434C345.344 496.723 344.562 498.363 344.562 500.355C344.562 502.23 345.441 503.754 347.199 504.926C348.996 506.059 352.004 507.055 356.223 507.914C360.441 508.734 363.996 509.672 366.887 510.727C375.832 514.008 380.305 519.691 380.305 527.777C380.305 533.559 377.824 538.246 372.863 541.84C367.902 545.395 361.496 547.172 353.645 547.172C348.332 547.172 343.605 546.234 339.465 544.359C335.363 542.445 332.141 539.848 329.797 536.566C327.453 533.246 326.281 529.672 326.281 525.844H342.336C342.492 528.852 343.605 531.156 345.676 532.758C347.746 534.359 350.52 535.16 353.996 535.16C357.238 535.16 359.68 534.555 361.32 533.344C363 532.094 363.84 530.473 363.84 528.48ZM409.133 546H392.141V482.602H409.133V546ZM391.145 466.195C391.145 463.656 391.984 461.566 393.664 459.926C395.383 458.285 397.707 457.465 400.637 457.465C403.527 457.465 405.832 458.285 407.551 459.926C409.27 461.566 410.129 463.656 410.129 466.195C410.129 468.773 409.25 470.883 407.492 472.523C405.773 474.164 403.488 474.984 400.637 474.984C397.785 474.984 395.48 474.164 393.723 472.523C392.004 470.883 391.145 468.773 391.145 466.195ZM457.473 528.48C457.473 526.41 456.438 524.789 454.367 523.617C452.336 522.406 449.055 521.332 444.523 520.395C429.445 517.23 421.906 510.824 421.906 501.176C421.906 495.551 424.23 490.863 428.879 487.113C433.566 483.324 439.68 481.43 447.219 481.43C455.266 481.43 461.691 483.324 466.496 487.113C471.34 490.902 473.762 495.824 473.762 501.879H456.828C456.828 499.457 456.047 497.465 454.484 495.902C452.922 494.301 450.48 493.5 447.16 493.5C444.309 493.5 442.102 494.145 440.539 495.434C438.977 496.723 438.195 498.363 438.195 500.355C438.195 502.23 439.074 503.754 440.832 504.926C442.629 506.059 445.637 507.055 449.855 507.914C454.074 508.734 457.629 509.672 460.52 510.727C469.465 514.008 473.938 519.691 473.938 527.777C473.938 533.559 471.457 538.246 466.496 541.84C461.535 545.395 455.129 547.172 447.277 547.172C441.965 547.172 437.238 546.234 433.098 544.359C428.996 542.445 425.773 539.848 423.43 536.566C421.086 533.246 419.914 529.672 419.914 525.844H435.969C436.125 528.852 437.238 531.156 439.309 532.758C441.379 534.359 444.152 535.16 447.629 535.16C450.871 535.16 453.312 534.555 454.953 533.344C456.633 532.094 457.473 530.473 457.473 528.48ZM505.168 467.016V482.602H516.008V495.023H505.168V526.664C505.168 529.008 505.617 530.688 506.516 531.703C507.414 532.719 509.133 533.227 511.672 533.227C513.547 533.227 515.207 533.09 516.652 532.816V545.648C513.332 546.664 509.914 547.172 506.398 547.172C494.523 547.172 488.469 541.176 488.234 529.184V495.023H478.977V482.602H488.234V467.016H505.168ZM554.621 547.172C545.324 547.172 537.746 544.32 531.887 538.617C526.066 532.914 523.156 525.316 523.156 515.824V514.184C523.156 507.816 524.387 502.133 526.848 497.133C529.309 492.094 532.785 488.227 537.277 485.531C541.809 482.797 546.965 481.43 552.746 481.43C561.418 481.43 568.234 484.164 573.195 489.633C578.195 495.102 580.695 502.855 580.695 512.895V519.809H540.324C540.871 523.949 542.512 527.27 545.246 529.77C548.02 532.27 551.516 533.52 555.734 533.52C562.258 533.52 567.355 531.156 571.027 526.43L579.348 535.746C576.809 539.34 573.371 542.152 569.035 544.184C564.699 546.176 559.895 547.172 554.621 547.172ZM552.688 495.141C549.328 495.141 546.594 496.273 544.484 498.539C542.414 500.805 541.086 504.047 540.5 508.266H564.055V506.918C563.977 503.168 562.961 500.277 561.008 498.246C559.055 496.176 556.281 495.141 552.688 495.141ZM606.242 482.602L606.77 489.691C611.262 484.184 617.336 481.43 624.992 481.43C633.156 481.43 638.762 484.652 641.809 491.098C646.262 484.652 652.609 481.43 660.852 481.43C667.727 481.43 672.844 483.441 676.203 487.465C679.562 491.449 681.242 497.465 681.242 505.512V546H664.25V505.57C664.25 501.977 663.547 499.359 662.141 497.719C660.734 496.039 658.254 495.199 654.699 495.199C649.621 495.199 646.105 497.621 644.152 502.465L644.211 546H627.277V505.629C627.277 501.957 626.555 499.301 625.109 497.66C623.664 496.02 621.203 495.199 617.727 495.199C612.922 495.199 609.445 497.191 607.297 501.176V546H590.363V482.602H606.242ZM731.047 546C730.266 544.477 729.699 542.582 729.348 540.316C725.246 544.887 719.914 547.172 713.352 547.172C707.141 547.172 701.984 545.375 697.883 541.781C693.82 538.188 691.789 533.656 691.789 528.188C691.789 521.469 694.27 516.312 699.23 512.719C704.23 509.125 711.438 507.309 720.852 507.27H728.645V503.637C728.645 500.707 727.883 498.363 726.359 496.605C724.875 494.848 722.512 493.969 719.27 493.969C716.418 493.969 714.172 494.652 712.531 496.02C710.93 497.387 710.129 499.262 710.129 501.645H693.195C693.195 497.973 694.328 494.574 696.594 491.449C698.859 488.324 702.062 485.883 706.203 484.125C710.344 482.328 714.992 481.43 720.148 481.43C727.961 481.43 734.152 483.402 738.723 487.348C743.332 491.254 745.637 496.762 745.637 503.871V531.352C745.676 537.367 746.516 541.918 748.156 545.004V546H731.047ZM717.043 534.223C719.543 534.223 721.848 533.676 723.957 532.582C726.066 531.449 727.629 529.945 728.645 528.07V517.172H722.316C713.84 517.172 709.328 520.102 708.781 525.961L708.723 526.957C708.723 529.066 709.465 530.805 710.949 532.172C712.434 533.539 714.465 534.223 717.043 534.223ZM785.891 513.832C785.891 503.949 788.098 496.078 792.512 490.219C796.965 484.359 803.039 481.43 810.734 481.43C816.906 481.43 822.004 483.734 826.027 488.344V456H843.02V546H827.727L826.906 539.262C822.688 544.535 817.258 547.172 810.617 547.172C803.156 547.172 797.16 544.242 792.629 538.383C788.137 532.484 785.891 524.301 785.891 513.832ZM802.824 515.062C802.824 521 803.859 525.551 805.93 528.715C808 531.879 811.008 533.461 814.953 533.461C820.188 533.461 823.879 531.254 826.027 526.84V501.82C823.918 497.406 820.266 495.199 815.07 495.199C806.906 495.199 802.824 501.82 802.824 515.062ZM885.324 547.172C876.027 547.172 868.449 544.32 862.59 538.617C856.77 532.914 853.859 525.316 853.859 515.824V514.184C853.859 507.816 855.09 502.133 857.551 497.133C860.012 492.094 863.488 488.227 867.98 485.531C872.512 482.797 877.668 481.43 883.449 481.43C892.121 481.43 898.938 484.164 903.898 489.633C908.898 495.102 911.398 502.855 911.398 512.895V519.809H871.027C871.574 523.949 873.215 527.27 875.949 529.77C878.723 532.27 882.219 533.52 886.438 533.52C892.961 533.52 898.059 531.156 901.73 526.43L910.051 535.746C907.512 539.34 904.074 542.152 899.738 544.184C895.402 546.176 890.598 547.172 885.324 547.172ZM883.391 495.141C880.031 495.141 877.297 496.273 875.188 498.539C873.117 500.805 871.789 504.047 871.203 508.266H894.758V506.918C894.68 503.168 893.664 500.277 891.711 498.246C889.758 496.176 886.984 495.141 883.391 495.141ZM1016.63 460.688V516.879C1016.63 526.215 1013.7 533.598 1007.84 539.027C1002.02 544.457 994.055 547.172 983.938 547.172C973.977 547.172 966.066 544.535 960.207 539.262C954.348 533.988 951.359 526.742 951.242 517.523V460.688H968.82V516.996C968.82 522.582 970.148 526.664 972.805 529.242C975.5 531.781 979.211 533.051 983.938 533.051C993.82 533.051 998.84 527.855 998.996 517.465V460.688H1016.63ZM1098.55 535.219C1095.38 539.008 1090.91 541.957 1085.13 544.066C1079.35 546.137 1072.94 547.172 1065.91 547.172C1058.53 547.172 1052.04 545.57 1046.46 542.367C1040.91 539.125 1036.61 534.438 1033.57 528.305C1030.56 522.172 1029.02 514.965 1028.94 506.684V500.883C1028.94 492.367 1030.36 485.004 1033.21 478.793C1036.11 472.543 1040.25 467.777 1045.64 464.496C1051.07 461.176 1057.41 459.516 1064.68 459.516C1074.8 459.516 1082.71 461.938 1088.41 466.781C1094.11 471.586 1097.49 478.598 1098.55 487.816H1081.44C1080.66 482.934 1078.92 479.359 1076.22 477.094C1073.57 474.828 1069.89 473.695 1065.21 473.695C1059.23 473.695 1054.68 475.941 1051.55 480.434C1048.43 484.926 1046.85 491.605 1046.81 500.473V505.922C1046.81 514.867 1048.51 521.625 1051.91 526.195C1055.3 530.766 1060.29 533.051 1066.85 533.051C1073.45 533.051 1078.16 531.645 1080.97 528.832V514.125H1064.97V501.176H1098.55V535.219Z" fill="black"/>
</svg>
